<mxfile host="app.diagrams.net" modified="2024-02-27T11:20:55.955Z" agent="Mozilla/5.0 (Windows NT 10.0; Win64; x64) AppleWebKit/537.36 (KHTML, like Gecko) Chrome/121.0.0.0 Safari/537.36" etag="5xyPoY2e8nxKcfM4wTyS" version="23.1.7" type="github">
  <diagram name="Page-1" id="FPIdoWPQeFc5p-aKN6lN">
    <mxGraphModel dx="3450" dy="1311" grid="1" gridSize="10" guides="1" tooltips="1" connect="1" arrows="1" fold="1" page="1" pageScale="1" pageWidth="850" pageHeight="1100" math="0" shadow="0">
      <root>
        <mxCell id="0" />
        <mxCell id="1" parent="0" />
        <mxCell id="pU5N5NDGk-DLxR4kdM4--9" value="" style="group;verticalAlign=top;" vertex="1" connectable="0" parent="1">
          <mxGeometry x="-800.0022222222221" y="40" width="250" height="250" as="geometry" />
        </mxCell>
        <mxCell id="pU5N5NDGk-DLxR4kdM4--10" value="" style="group" vertex="1" connectable="0" parent="pU5N5NDGk-DLxR4kdM4--9">
          <mxGeometry width="250" height="250" as="geometry" />
        </mxCell>
        <mxCell id="di7hwIyVcmxTyqmBg4su-2" value="&lt;font style=&quot;font-size: 24px;&quot;&gt;Program_Counter&lt;/font&gt;" style="whiteSpace=wrap;html=1;aspect=fixed;verticalAlign=top;" parent="pU5N5NDGk-DLxR4kdM4--10" vertex="1">
          <mxGeometry x="0.0022222024692619942" width="249.99777779753074" height="249.99777779753074" as="geometry" />
        </mxCell>
        <mxCell id="pU5N5NDGk-DLxR4kdM4--3" value="clk_i" style="edgeLabel;html=1;align=left;verticalAlign=middle;resizable=0;points=[];" vertex="1" connectable="0" parent="pU5N5NDGk-DLxR4kdM4--10">
          <mxGeometry y="40" as="geometry" />
        </mxCell>
        <mxCell id="pU5N5NDGk-DLxR4kdM4--4" value="reset_i" style="edgeLabel;html=1;align=left;verticalAlign=middle;resizable=0;points=[];" vertex="1" connectable="0" parent="pU5N5NDGk-DLxR4kdM4--10">
          <mxGeometry y="80" as="geometry" />
        </mxCell>
        <mxCell id="pU5N5NDGk-DLxR4kdM4--5" value="PC_load_i" style="edgeLabel;html=1;align=left;verticalAlign=middle;resizable=0;points=[];" vertex="1" connectable="0" parent="pU5N5NDGk-DLxR4kdM4--10">
          <mxGeometry y="119.51999999999998" as="geometry" />
        </mxCell>
        <mxCell id="pU5N5NDGk-DLxR4kdM4--6" value="PC_inc_i" style="edgeLabel;html=1;align=left;verticalAlign=middle;resizable=0;points=[];" vertex="1" connectable="0" parent="pU5N5NDGk-DLxR4kdM4--10">
          <mxGeometry y="160" as="geometry" />
        </mxCell>
        <mxCell id="pU5N5NDGk-DLxR4kdM4--7" value="addr_i (8)" style="edgeLabel;html=1;align=left;verticalAlign=middle;resizable=0;points=[];" vertex="1" connectable="0" parent="pU5N5NDGk-DLxR4kdM4--10">
          <mxGeometry y="200" as="geometry" />
        </mxCell>
        <mxCell id="pU5N5NDGk-DLxR4kdM4--8" value="PC_o (8)" style="edgeLabel;html=1;align=right;verticalAlign=middle;resizable=0;points=[];" vertex="1" connectable="0" parent="pU5N5NDGk-DLxR4kdM4--10">
          <mxGeometry x="249.99777779753077" y="119.51999999999998" as="geometry" />
        </mxCell>
        <mxCell id="pU5N5NDGk-DLxR4kdM4--28" value="" style="group" vertex="1" connectable="0" parent="1">
          <mxGeometry x="-160" y="40" width="250" height="250" as="geometry" />
        </mxCell>
        <mxCell id="9xyX19tClgwM5pYCOrdM-19" value="&lt;font style=&quot;font-size: 24px;&quot;&gt;Operandes_Register&lt;/font&gt;" style="rounded=0;whiteSpace=wrap;html=1;container=0;verticalAlign=top;" parent="pU5N5NDGk-DLxR4kdM4--28" vertex="1">
          <mxGeometry width="250" height="250" as="geometry" />
        </mxCell>
        <mxCell id="pU5N5NDGk-DLxR4kdM4--21" value="clk_i" style="edgeLabel;html=1;align=left;verticalAlign=middle;resizable=0;points=[];container=0;fontSize=12;" vertex="1" connectable="0" parent="pU5N5NDGk-DLxR4kdM4--28">
          <mxGeometry x="0.0021672868805188298" y="53.02959455275134" as="geometry" />
        </mxCell>
        <mxCell id="pU5N5NDGk-DLxR4kdM4--22" value="oper1_i (8)" style="edgeLabel;html=1;align=left;verticalAlign=middle;resizable=0;points=[];container=0;fontSize=12;" vertex="1" connectable="0" parent="pU5N5NDGk-DLxR4kdM4--28">
          <mxGeometry x="0.0021672868805188298" y="88.74221835289724" as="geometry" />
        </mxCell>
        <mxCell id="pU5N5NDGk-DLxR4kdM4--23" value="oper2_i (8)" style="edgeLabel;html=1;align=left;verticalAlign=middle;resizable=0;points=[];container=0;fontSize=12;" vertex="1" connectable="0" parent="pU5N5NDGk-DLxR4kdM4--28">
          <mxGeometry x="0.0021672868805188298" y="125.54635610849851" as="geometry" />
        </mxCell>
        <mxCell id="pU5N5NDGk-DLxR4kdM4--24" value="oper_load_i" style="edgeLabel;html=1;align=left;verticalAlign=middle;resizable=0;points=[];container=0;fontSize=12;" vertex="1" connectable="0" parent="pU5N5NDGk-DLxR4kdM4--28">
          <mxGeometry x="0.0021672868805188298" y="161.26064182278424" as="geometry" />
        </mxCell>
        <mxCell id="pU5N5NDGk-DLxR4kdM4--25" value="reset_i" style="edgeLabel;html=1;align=left;verticalAlign=middle;resizable=0;points=[];container=0;fontSize=12;" vertex="1" connectable="0" parent="pU5N5NDGk-DLxR4kdM4--28">
          <mxGeometry x="0.0021672868805188298" y="196.97492753706993" as="geometry" />
        </mxCell>
        <mxCell id="pU5N5NDGk-DLxR4kdM4--26" value="operande2_o (8)" style="edgeLabel;html=1;align=right;verticalAlign=middle;resizable=0;points=[];container=0;fontSize=12;" vertex="1" connectable="0" parent="pU5N5NDGk-DLxR4kdM4--28">
          <mxGeometry x="249.99602402236903" y="143.0456497594618" as="geometry" />
        </mxCell>
        <mxCell id="pU5N5NDGk-DLxR4kdM4--27" value="operande1_o (8)" style="edgeLabel;html=1;align=right;verticalAlign=middle;resizable=0;points=[];container=0;fontSize=12;" vertex="1" connectable="0" parent="pU5N5NDGk-DLxR4kdM4--28">
          <mxGeometry x="249.99602402236903" y="106.94743547374769" as="geometry" />
        </mxCell>
        <mxCell id="pU5N5NDGk-DLxR4kdM4--35" value="" style="group" vertex="1" connectable="0" parent="1">
          <mxGeometry x="-480" y="40" width="250" height="250" as="geometry" />
        </mxCell>
        <mxCell id="di7hwIyVcmxTyqmBg4su-104" value="&lt;font style=&quot;font-size: 22px;&quot;&gt;Instruction_Register&lt;/font&gt;" style="rounded=0;whiteSpace=wrap;html=1;verticalAlign=top;" parent="pU5N5NDGk-DLxR4kdM4--35" vertex="1">
          <mxGeometry width="250" height="250" as="geometry" />
        </mxCell>
        <mxCell id="pU5N5NDGk-DLxR4kdM4--29" value="reset_i" style="edgeLabel;html=1;align=left;verticalAlign=middle;resizable=0;points=[];" vertex="1" connectable="0" parent="pU5N5NDGk-DLxR4kdM4--35">
          <mxGeometry x="0.002592592592634446" y="99.99999999999997" as="geometry" />
        </mxCell>
        <mxCell id="pU5N5NDGk-DLxR4kdM4--30" value="IR_load_i" style="edgeLabel;html=1;align=left;verticalAlign=middle;resizable=0;points=[];" vertex="1" connectable="0" parent="pU5N5NDGk-DLxR4kdM4--35">
          <mxGeometry x="0.002592592592634446" y="150.00000000000003" as="geometry" />
        </mxCell>
        <mxCell id="pU5N5NDGk-DLxR4kdM4--31" value="IR_i (14)" style="edgeLabel;html=1;align=left;verticalAlign=middle;resizable=0;points=[];" vertex="1" connectable="0" parent="pU5N5NDGk-DLxR4kdM4--35">
          <mxGeometry x="0.002592592592634446" y="200.00000000000006" as="geometry" />
        </mxCell>
        <mxCell id="pU5N5NDGk-DLxR4kdM4--32" value="clk_i" style="edgeLabel;html=1;align=left;verticalAlign=middle;resizable=0;points=[];" vertex="1" connectable="0" parent="pU5N5NDGk-DLxR4kdM4--35">
          <mxGeometry x="0.002592592592634446" y="50.00000000000003" as="geometry" />
        </mxCell>
        <mxCell id="pU5N5NDGk-DLxR4kdM4--33" value="operande_o (8)" style="edgeLabel;html=1;align=right;verticalAlign=middle;resizable=0;points=[];" vertex="1" connectable="0" parent="pU5N5NDGk-DLxR4kdM4--35">
          <mxGeometry x="249.999484704853" y="104.99993792137005" as="geometry" />
        </mxCell>
        <mxCell id="pU5N5NDGk-DLxR4kdM4--34" value="opcode_o (6)" style="edgeLabel;html=1;align=right;verticalAlign=middle;resizable=0;points=[];" vertex="1" connectable="0" parent="pU5N5NDGk-DLxR4kdM4--35">
          <mxGeometry x="249.999484704853" y="144.99993792137005" as="geometry" />
        </mxCell>
        <mxCell id="pU5N5NDGk-DLxR4kdM4--42" value="" style="group" vertex="1" connectable="0" parent="1">
          <mxGeometry x="160" y="40" width="250" height="250" as="geometry" />
        </mxCell>
        <mxCell id="9xyX19tClgwM5pYCOrdM-34" value="ALU" style="rounded=0;whiteSpace=wrap;html=1;container=0;verticalAlign=top;fontSize=24;" parent="pU5N5NDGk-DLxR4kdM4--42" vertex="1">
          <mxGeometry x="0.00027969759694662877" width="249.9997203024031" height="250" as="geometry" />
        </mxCell>
        <mxCell id="pU5N5NDGk-DLxR4kdM4--36" value="opcode_i (6)" style="edgeLabel;html=1;align=left;verticalAlign=middle;resizable=0;points=[];container=0;fontSize=12;" vertex="1" connectable="0" parent="pU5N5NDGk-DLxR4kdM4--42">
          <mxGeometry y="70.88798784118339" as="geometry" />
        </mxCell>
        <mxCell id="pU5N5NDGk-DLxR4kdM4--37" value="operande1_i (8)" style="edgeLabel;html=1;align=left;verticalAlign=middle;resizable=0;points=[];container=0;fontSize=12;" vertex="1" connectable="0" parent="pU5N5NDGk-DLxR4kdM4--42">
          <mxGeometry x="0.001605983466710753" y="106.60035113481088" as="geometry" />
        </mxCell>
        <mxCell id="pU5N5NDGk-DLxR4kdM4--38" value="operande2_i (8)" style="edgeLabel;html=1;align=left;verticalAlign=middle;resizable=0;points=[];container=0;fontSize=12;" vertex="1" connectable="0" parent="pU5N5NDGk-DLxR4kdM4--42">
          <mxGeometry x="0.004215834133408707" y="143.40361413753828" as="geometry" />
        </mxCell>
        <mxCell id="pU5N5NDGk-DLxR4kdM4--39" value="CCR_i (4)" style="edgeLabel;html=1;align=left;verticalAlign=middle;resizable=0;points=[];container=0;fontSize=12;" vertex="1" connectable="0" parent="pU5N5NDGk-DLxR4kdM4--42">
          <mxGeometry x="0.004215834133408707" y="179.117899851824" as="geometry" />
        </mxCell>
        <mxCell id="pU5N5NDGk-DLxR4kdM4--40" value="ALU_o (8)" style="edgeLabel;html=1;align=right;verticalAlign=middle;resizable=0;points=[];container=0;fontSize=12;" vertex="1" connectable="0" parent="pU5N5NDGk-DLxR4kdM4--42">
          <mxGeometry x="245.8357442582258" y="88.74010189632823" as="geometry" />
        </mxCell>
        <mxCell id="pU5N5NDGk-DLxR4kdM4--41" value="Z_C_V_N (4)" style="edgeLabel;html=1;align=right;verticalAlign=middle;resizable=0;points=[];container=0;fontSize=12;" vertex="1" connectable="0" parent="pU5N5NDGk-DLxR4kdM4--42">
          <mxGeometry x="244.79407875696577" y="124.45438761061395" as="geometry" />
        </mxCell>
        <mxCell id="pU5N5NDGk-DLxR4kdM4--55" value="" style="group" vertex="1" connectable="0" parent="1">
          <mxGeometry x="-690.0035345089464" y="340" width="352.00501599042764" height="350" as="geometry" />
        </mxCell>
        <mxCell id="di7hwIyVcmxTyqmBg4su-79" value="Sequenceur" style="rounded=0;whiteSpace=wrap;html=1;verticalAlign=top;fontSize=24;" parent="pU5N5NDGk-DLxR4kdM4--55" vertex="1">
          <mxGeometry x="0.003534508946358983" width="350" height="350" as="geometry" />
        </mxCell>
        <mxCell id="pU5N5NDGk-DLxR4kdM4--43" value="PC_inc_o" style="edgeLabel;html=1;align=right;verticalAlign=middle;resizable=0;points=[];" vertex="1" connectable="0" parent="pU5N5NDGk-DLxR4kdM4--55">
          <mxGeometry x="350.00501599042764" y="35" as="geometry" />
        </mxCell>
        <mxCell id="pU5N5NDGk-DLxR4kdM4--44" value="PC_load_o" style="edgeLabel;html=1;align=right;verticalAlign=middle;resizable=0;points=[];" vertex="1" connectable="0" parent="pU5N5NDGk-DLxR4kdM4--55">
          <mxGeometry x="350.00501599042764" y="75" as="geometry" />
        </mxCell>
        <mxCell id="pU5N5NDGk-DLxR4kdM4--45" value="IR_load_o" style="edgeLabel;html=1;align=right;verticalAlign=middle;resizable=0;points=[];" vertex="1" connectable="0" parent="pU5N5NDGk-DLxR4kdM4--55">
          <mxGeometry x="350.00501599042764" y="114.99999999999994" as="geometry" />
        </mxCell>
        <mxCell id="pU5N5NDGk-DLxR4kdM4--46" value="oper_sel_o (3)" style="edgeLabel;html=1;align=right;verticalAlign=middle;resizable=0;points=[];" vertex="1" connectable="0" parent="pU5N5NDGk-DLxR4kdM4--55">
          <mxGeometry x="352.00501599042764" y="154.99999999999994" as="geometry" />
        </mxCell>
        <mxCell id="pU5N5NDGk-DLxR4kdM4--47" value="oper_load_o" style="edgeLabel;html=1;align=right;verticalAlign=middle;resizable=0;points=[];" vertex="1" connectable="0" parent="pU5N5NDGk-DLxR4kdM4--55">
          <mxGeometry x="350.00501599042764" y="195" as="geometry" />
        </mxCell>
        <mxCell id="pU5N5NDGk-DLxR4kdM4--48" value="Accu_load_o" style="edgeLabel;html=1;align=right;verticalAlign=middle;resizable=0;points=[];" vertex="1" connectable="0" parent="pU5N5NDGk-DLxR4kdM4--55">
          <mxGeometry x="350.00501599042764" y="235" as="geometry" />
        </mxCell>
        <mxCell id="pU5N5NDGk-DLxR4kdM4--49" value="CCR_load_o" style="edgeLabel;html=1;align=right;verticalAlign=middle;resizable=0;points=[];" vertex="1" connectable="0" parent="pU5N5NDGk-DLxR4kdM4--55">
          <mxGeometry x="350.00501599042764" y="275" as="geometry" />
        </mxCell>
        <mxCell id="pU5N5NDGk-DLxR4kdM4--50" value="data_wr_o" style="edgeLabel;html=1;align=right;verticalAlign=middle;resizable=0;points=[];" vertex="1" connectable="0" parent="pU5N5NDGk-DLxR4kdM4--55">
          <mxGeometry x="350.00501599042764" y="315" as="geometry" />
        </mxCell>
        <mxCell id="pU5N5NDGk-DLxR4kdM4--51" value="reset_i" style="edgeLabel;html=1;align=left;verticalAlign=middle;resizable=0;points=[];" vertex="1" connectable="0" parent="pU5N5NDGk-DLxR4kdM4--55">
          <mxGeometry y="155.00424185838304" as="geometry" />
        </mxCell>
        <mxCell id="pU5N5NDGk-DLxR4kdM4--52" value="CCR_i (4)" style="edgeLabel;html=1;align=left;verticalAlign=middle;resizable=0;points=[];" vertex="1" connectable="0" parent="pU5N5NDGk-DLxR4kdM4--55">
          <mxGeometry y="240.004241858383" as="geometry" />
        </mxCell>
        <mxCell id="pU5N5NDGk-DLxR4kdM4--53" value="clk_i" style="edgeLabel;html=1;align=left;verticalAlign=middle;resizable=0;points=[];" vertex="1" connectable="0" parent="pU5N5NDGk-DLxR4kdM4--55">
          <mxGeometry y="110.00424185838295" as="geometry" />
        </mxCell>
        <mxCell id="pU5N5NDGk-DLxR4kdM4--54" value="opcode_i (6)" style="edgeLabel;html=1;align=left;verticalAlign=middle;resizable=0;points=[];" vertex="1" connectable="0" parent="pU5N5NDGk-DLxR4kdM4--55">
          <mxGeometry y="200.00424185838298" as="geometry" />
        </mxCell>
        <mxCell id="pU5N5NDGk-DLxR4kdM4--65" value="" style="group" vertex="1" connectable="0" parent="1">
          <mxGeometry x="-279.9969371656232" y="360" width="250" height="250" as="geometry" />
        </mxCell>
        <mxCell id="9xyX19tClgwM5pYCOrdM-53" value="Status_Register" style="rounded=0;whiteSpace=wrap;html=1;container=0;verticalAlign=top;fontSize=24;" parent="pU5N5NDGk-DLxR4kdM4--65" vertex="1">
          <mxGeometry x="0.007225935776086161" width="249.9903678909752" height="250" as="geometry" />
        </mxCell>
        <mxCell id="pU5N5NDGk-DLxR4kdM4--56" value="CCR_o (4)" style="edgeLabel;html=1;align=right;verticalAlign=middle;resizable=0;points=[];container=0;" vertex="1" connectable="0" parent="pU5N5NDGk-DLxR4kdM4--65">
          <mxGeometry x="250" y="124.99903046775692" as="geometry" />
        </mxCell>
        <mxCell id="pU5N5NDGk-DLxR4kdM4--61" value="clk_i" style="edgeLabel;html=1;align=left;verticalAlign=middle;resizable=0;points=[];container=0;" vertex="1" connectable="0" parent="pU5N5NDGk-DLxR4kdM4--65">
          <mxGeometry y="70.88695970879009" as="geometry" />
        </mxCell>
        <mxCell id="pU5N5NDGk-DLxR4kdM4--62" value="reset_i" style="edgeLabel;html=1;align=left;verticalAlign=middle;resizable=0;points=[];container=0;" vertex="1" connectable="0" parent="pU5N5NDGk-DLxR4kdM4--65">
          <mxGeometry x="0.003341708639248912" y="106.59919448586821" as="geometry" />
        </mxCell>
        <mxCell id="pU5N5NDGk-DLxR4kdM4--63" value="CCR_load_i" style="edgeLabel;html=1;align=left;verticalAlign=middle;resizable=0;points=[];container=0;" vertex="1" connectable="0" parent="pU5N5NDGk-DLxR4kdM4--65">
          <mxGeometry x="0.007689906922872758" y="143.4035194406453" as="geometry" />
        </mxCell>
        <mxCell id="pU5N5NDGk-DLxR4kdM4--64" value="CCR_i (4)" style="edgeLabel;html=1;align=left;verticalAlign=middle;resizable=0;points=[];container=0;" vertex="1" connectable="0" parent="pU5N5NDGk-DLxR4kdM4--65">
          <mxGeometry x="0.007689906922872758" y="179.11780515493103" as="geometry" />
        </mxCell>
        <mxCell id="pU5N5NDGk-DLxR4kdM4--72" value="" style="group" vertex="1" connectable="0" parent="1">
          <mxGeometry x="389.998398955051" y="330" width="250" height="250" as="geometry" />
        </mxCell>
        <mxCell id="9xyX19tClgwM5pYCOrdM-1" value="Operandes_Multiplexer" style="rounded=0;whiteSpace=wrap;html=1;verticalAlign=top;fontSize=24;" parent="pU5N5NDGk-DLxR4kdM4--72" vertex="1">
          <mxGeometry x="0.0016677279777557506" width="249.99592604527595" height="250" as="geometry" />
        </mxCell>
        <mxCell id="pU5N5NDGk-DLxR4kdM4--66" value="sel_i (3)" style="edgeLabel;html=1;align=left;verticalAlign=middle;resizable=0;points=[];" vertex="1" connectable="0" parent="pU5N5NDGk-DLxR4kdM4--72">
          <mxGeometry x="2.2932506722984853" y="70.8774603792984" as="geometry" />
        </mxCell>
        <mxCell id="pU5N5NDGk-DLxR4kdM4--67" value="Accu_i (8)" style="edgeLabel;html=1;align=left;verticalAlign=middle;resizable=0;points=[];" vertex="1" connectable="0" parent="pU5N5NDGk-DLxR4kdM4--72">
          <mxGeometry y="106.59063606406225" as="geometry" />
        </mxCell>
        <mxCell id="pU5N5NDGk-DLxR4kdM4--68" value="const_i&amp;nbsp;(8)" style="edgeLabel;html=1;align=left;verticalAlign=middle;resizable=0;points=[];" vertex="1" connectable="0" parent="pU5N5NDGk-DLxR4kdM4--72">
          <mxGeometry x="1.4728000202401619" y="143.4008161820425" as="geometry" />
        </mxCell>
        <mxCell id="pU5N5NDGk-DLxR4kdM4--69" value="data_i&amp;nbsp;(8)" style="edgeLabel;html=1;align=left;verticalAlign=middle;resizable=0;points=[];" vertex="1" connectable="0" parent="pU5N5NDGk-DLxR4kdM4--72">
          <mxGeometry x="1.4728000202401619" y="179.1151018963282" as="geometry" />
        </mxCell>
        <mxCell id="pU5N5NDGk-DLxR4kdM4--70" value="oper1_o (8)" style="edgeLabel;html=1;align=right;verticalAlign=middle;resizable=0;points=[];" vertex="1" connectable="0" parent="pU5N5NDGk-DLxR4kdM4--72">
          <mxGeometry x="250.00000000000003" y="107.1418876106139" as="geometry" />
        </mxCell>
        <mxCell id="pU5N5NDGk-DLxR4kdM4--71" value="oper2_o (8)" style="edgeLabel;html=1;align=right;verticalAlign=middle;resizable=0;points=[];" vertex="1" connectable="0" parent="pU5N5NDGk-DLxR4kdM4--72">
          <mxGeometry x="248.9583503081447" y="142.85617332489963" as="geometry" />
        </mxCell>
        <mxCell id="pU5N5NDGk-DLxR4kdM4--78" value="" style="group" vertex="1" connectable="0" parent="1">
          <mxGeometry x="49.9962733850316" y="370" width="250" height="250" as="geometry" />
        </mxCell>
        <mxCell id="9xyX19tClgwM5pYCOrdM-66" value="W_Register" style="rounded=0;whiteSpace=wrap;html=1;container=0;verticalAlign=top;fontSize=24;" parent="pU5N5NDGk-DLxR4kdM4--78" vertex="1">
          <mxGeometry x="0.00388183031672109" width="249.99611816968326" height="250" as="geometry" />
        </mxCell>
        <mxCell id="pU5N5NDGk-DLxR4kdM4--73" value="Accu_o (8)" style="edgeLabel;html=1;align=right;verticalAlign=middle;resizable=0;points=[];container=0;" vertex="1" connectable="0" parent="pU5N5NDGk-DLxR4kdM4--78">
          <mxGeometry x="244.7941537667271" y="124.99903046775671" as="geometry" />
        </mxCell>
        <mxCell id="pU5N5NDGk-DLxR4kdM4--74" value="Accu_in (8)" style="edgeLabel;html=1;align=left;verticalAlign=middle;resizable=0;points=[];container=0;" vertex="1" connectable="0" parent="pU5N5NDGk-DLxR4kdM4--78">
          <mxGeometry x="0.0035984075023779405" y="70.88613720287543" as="geometry" />
        </mxCell>
        <mxCell id="pU5N5NDGk-DLxR4kdM4--75" value="Accu_load_i" style="edgeLabel;html=1;align=left;verticalAlign=middle;resizable=0;points=[];container=0;" vertex="1" connectable="0" parent="pU5N5NDGk-DLxR4kdM4--78">
          <mxGeometry y="106.60042824474044" as="geometry" />
        </mxCell>
        <mxCell id="pU5N5NDGk-DLxR4kdM4--76" value="clk_i" style="edgeLabel;html=1;align=left;verticalAlign=middle;resizable=0;points=[];container=0;" vertex="1" connectable="0" parent="pU5N5NDGk-DLxR4kdM4--78">
          <mxGeometry x="0.007817867957039279" y="143.4036709556741" as="geometry" />
        </mxCell>
        <mxCell id="pU5N5NDGk-DLxR4kdM4--77" value="reset_i" style="edgeLabel;html=1;align=left;verticalAlign=middle;resizable=0;points=[];container=0;" vertex="1" connectable="0" parent="pU5N5NDGk-DLxR4kdM4--78">
          <mxGeometry x="0.007817867957039279" y="179.11795666995982" as="geometry" />
        </mxCell>
      </root>
    </mxGraphModel>
  </diagram>
</mxfile>
